{"title":"The Liberator 2013 BluRay 1080p DTS x264-FWOLF","uid":12595295,"size":14080493105,"categoryP":"video","categoryS":"hd___movies","magnet":"?xt=urn:btih:886c0b5230fae5de5d7ba1d46a47962e6ac3a6e4&amp;dn=The+Liberator+2013+BluRay+1080p+DTS+x264-FWOLF&amp;tr=udp%3A%2F%2Ftracker.leechers-paradise.org%3A6969&amp;tr=udp%3A%2F%2Fzer0day.ch%3A1337&amp;tr=udp%3A%2F%2Fopen.demonii.com%3A1337&amp;tr=udp%3A%2F%2Ftracker.coppersurfer.tk%3A6969&amp;tr=udp%3A%2F%2Fexodus.desync.com%3A6969","seeders":0,"leechers":3,"uploader":"sakhslitsa","files":5,"time":1445219089,"description":"imdb.... \nhttp://www.imdb.com/title/tt2387513/\r\n\r\n\r\n\r\nFormat : Matroska\r\nFormat version : Version 2\r\nFile size : 13.0 GiB\r\nDuration : 1h 58mn\r\nOverall bit rate : 15.7 Mbps\r\nEncoded date : UTC 2015-03-28 11:01:50\r\n\r\nVideo\r\nID : 1\r\nFormat : AVC\r\nFormat/Info : Advanced Video Codec\r\nFormat profile :   \r\nFormat settings, CABAC : Yes\r\nFormat settings, ReFrames : 4 frames\r\nCodec ID : V_MPEG4/ISO/AVC\r\nDuration : 1h 58mn\r\nBit rate : 14.2 Mbps\r\nWidth : 1 920 pixels\r\nHeight : 816 pixels\r\nDisplay aspect ratio : 2.35:1\r\nFrame rate mode : Constant\r\nFrame rate : 23.976 fps\r\nColor space : YUV\r\nChroma subsampling : 4:2:0\r\nBit depth : 8 bits\r\nScan type : Progressive\r\nBits/(Pixel*Frame) : 0.377\r\nStream size : 11.5 GiB (88%)\r\nWriting library : x264 core 146 r2538 121396c\r\nEncoding settings : cabac=1 / ref=5 / deblock=1:-1:-1 / analyse=0x3:0x133 / me=tesa / subme=11 / psy=1 / psy_rd=1.00:0.15 / mixed_ref=1 / me_range=32 / chroma_me=1 / trellis=2 / 8x8dct=1 / cqm=0 / deadzone=21,11 / fast_pskip=0 / chroma_qp_offset=-3 / threads=12 / lookahead_threads=2 / sliced_threads=0 / nr=0 / decimate=0 / interlaced=0 / bluray_compat=0 / constrained_intra=0 / bframes=9 / b_pyramid=1 / b_adapt=2 / b_bias=0 / direct=1 / weightb=1 / open_gop=0 / weightp=2 / keyint=230 / keyint_min=23 / scenecut=40 / intra_refresh=0 / rc_lookahead=60 / rc=2pass / mbtree=1 / bitrate=14180 / ratetol=1.0 / qcomp=0.60 / qpmin=0 / qpmax=69 / qpstep=4 / cplxblur=20.0 / qblur=0.5 / ip_ratio=1.40 / aq=1:1.00\r\nLanguage : English\r\nDefault : Yes\r\nForced : No\r\n\r\nAudio\r\nID : 2\r\nFormat : DTS\r\nFormat/Info : Digital Theater Systems\r\nMode : 16\r\nFormat settings, Endianness : Big\r\nCodec ID : A_DTS\r\nDuration : 1h 58mn\r\nBit rate mode : Constant\r\nBit rate : 1 509 Kbps\r\nChannel(s) : 6 channels\r\nChannel positions : Front: L C R, Side: L R, LFE\r\nSampling rate : 48.0 KHz\r\nBit depth : 24 bits\r\nCompression mode : Lossy\r\nStream size : 1.25 GiB (10%)\r\nLanguage : Spanish\r\nDefault : Yes\r\nForced : No\r\n\r\nMenu\r\n00:00:00.000 : en:00:00:00.000\r\n00:05:03.011 : en:00:05:03.011\r\n00:10:39.264 : en:00:10:39.264\r\n00:20:35.484 : en:00:20:35.484\r\n00:36:39.239 : en:00:36:39.239\r\n00:42:17.493 : en:00:42:17.493\r\n00:51:55.821 : en:00:51:55.821\r\n01:02:08.099 : en:01:02:08.099\r\n01:14:48.734 : en:01:14:48.734\r\n01:20:03.215 : en:01:20:03.215\r\n01:30:14.451 : en:01:30:14.451\r\n01:50:29.623 : en:01:50:29.623\r\n\r\n\r\n\r\nEncoded....................FWOLF\r\n\r\nSource......................Remux 1080p 32.97 GB (Thanks!)\r\n\r\nSample.....................Yes\r\n\r\nSubs.......................(srt) English","torrent":{"xt":"urn:btih:886c0b5230fae5de5d7ba1d46a47962e6ac3a6e4","amp;dn":"The+Liberator+2013+BluRay+1080p+DTS+x264-FWOLF","amp;tr":["udp%3A%2F%2Ftracker.leechers-paradise.org%3A6969","udp%3A%2F%2Fzer0day.ch%3A1337","udp%3A%2F%2Fopen.demonii.com%3A1337","udp%3A%2F%2Ftracker.coppersurfer.tk%3A6969","udp%3A%2F%2Fexodus.desync.com%3A6969"],"infoHash":"886c0b5230fae5de5d7ba1d46a47962e6ac3a6e4","infoHashBuffer":{"type":"Buffer","data":[136,108,11,82,48,250,229,222,93,123,161,212,106,71,150,46,106,195,166,228]},"announce":[],"urlList":[]}}